<?xml version="1.0" encoding="UTF-8" standalone="no"?>
<svg
   version="1.1"
   id="Layer_1"
   width="1024"
   height="1024"
   viewBox="0 0 1024 1024"
   sodipodi:docname="IconChart.svg"
   inkscape:version="1.3 (0e150ed, 2023-07-21)"
   xmlns:inkscape="http://www.inkscape.org/namespaces/inkscape"
   xmlns:sodipodi="http://sodipodi.sourceforge.net/DTD/sodipodi-0.dtd"
   xmlns="http://www.w3.org/2000/svg"
   xmlns:svg="http://www.w3.org/2000/svg">
  <defs
     id="defs1" />
  <sodipodi:namedview
     id="namedview1"
     pagecolor="#ffffff"
     bordercolor="#000000"
     borderopacity="0.25"
     inkscape:showpageshadow="2"
     inkscape:pageopacity="0.0"
     inkscape:pagecheckerboard="0"
     inkscape:deskcolor="#d1d1d1"
     inkscape:zoom="0.23046875"
     inkscape:cx="512"
     inkscape:cy="512"
     inkscape:window-width="1312"
     inkscape:window-height="449"
     inkscape:window-x="0"
     inkscape:window-y="32"
     inkscape:window-maximized="0"
     inkscape:current-layer="content" />
  <!-- Background removed for iOS 26 glass effect -->
  <g
     id="content"
     transform="translate(61, 107) scale(1.85)">
    <g
       id="chart">
      <rect
         fill="#D9DADB"
         x="46"
         y="381"
         width="52"
         height="29"
         rx="8"
         id="bar-1" />
      <rect
         fill="#D9DADB"
         x="114"
         y="331"
         width="52"
         height="79"
         rx="8"
         id="bar-2" />
      <rect
         fill="#DBDBDB"
         x="183"
         y="284"
         width="52"
         height="126"
         rx="8"
         id="bar-3" />
      <rect
         fill="#DBDCDB"
         x="253"
         y="307"
         width="52"
         height="103"
         rx="8"
         id="bar-4" />
      <rect
         fill="#DADADA"
         x="321"
         y="239"
         width="52"
         height="171"
         rx="8"
         id="bar-5" />
      <rect
         fill="#DADBDA"
         x="390"
         y="141"
         width="52"
         height="269"
         rx="8"
         id="bar-6" />
      <path
         id="trend"
         d="m 391,65 18,3 c -39.59657,65 -80.37986,123.57161 -133.06842,182.80733 -1.87318,1.98506 -3.49207,3.04838 -7.1232,2.52849 L 177,227 c -3.93892,-1.30282 -6.3155,-0.79416 -9,2 L 46,348 c -4.083255,6.40353 2.722236,10.69769 8,8 L 172,242 c 1.54393,-1.65145 3.43118,-2.06145 5.64203,-1.21478 l 90.19915,24.57099 c 4.40576,1.09118 8.7243,1.48247 12.19156,-2.56481 C 335.03274,204.7914 378,141 421,75 l 14,12 3,-59 z"
         style="fill:#dbdbdb" />
    </g>
  </g>
</svg>
