<?xml version="1.0" encoding="UTF-8" standalone="no"?>
<svg
   version="1.1"
   id="Layer_1"
   width="1024"
   height="1024"
   viewBox="0 0 1024 1024"
   xmlns="http://www.w3.org/2000/svg">
<rect
   fill="#ffffff"
   x="0"
   y="0"
   width="1024"
   height="1024"
   id="background" />
<g id="content" transform="translate(61, 107) scale(1.85)">
  <circle
     fill="#7aae21"
     cx="240"
     cy="125"
     r="33"
     id="head" />
  <g id="chart">
    <rect fill="#D9DADB" x="46" y="381" width="52" height="29" rx="8" id="bar-1" />
    <rect fill="#D9DADB" x="114" y="331" width="52" height="79" rx="8" id="bar-2" />
    <rect fill="#DBDBDB" x="183" y="284" width="52" height="126" rx="8" id="bar-3" />
    <rect fill="#DBDCDB" x="253" y="307" width="52" height="103" rx="8" id="bar-4" />
    <rect fill="#DADADA" x="321" y="239" width="52" height="171" rx="8" id="bar-5" />
    <rect fill="#DADBDA" x="390" y="141" width="52" height="269" rx="8" id="bar-6" />
    <path
       id="trend"
       d="m 391,65 18,3 c -39.59657,65 -80.37986,123.57161 -133.06842,182.80733 -1.87318,1.98506 -3.49207,3.04838 -7.1232,2.52849 L 177,227 c -3.93892,-1.30282 -6.3155,-0.79416 -9,2 L 46,348 c -4.083255,6.40353 2.722236,10.69769 8,8 L 172,242 c 1.54393,-1.65145 3.43118,-2.06145 5.64203,-1.21478 l 90.19915,24.57099 c 4.40576,1.09118 8.7243,1.48247 12.19156,-2.56481 C 335.03274,204.7914 378,141 421,75 l 14,12 3,-59 z"
       style="fill:#dbdbdb" />
  </g>
  <g id="body">
    <path
       id="body-shape"
       d="m 320,88 c -18,25 -36,50 -49,72 q -4,3 -11,3 h -40 q -7,0 -11,-3 c -13,-22 -31,-47 -49,-72 -10,-15 -25,-8 -16,8 20,30 40,60 52,80 4,7 7,14 7,21 l 2,90 8,90 c 1,6 -2,9 -5,12 -4,3 -8,7 -10,11 -2,3 -1,7 1,9 2,2 5,3 9,3 h 24 c 4,0 6,-3 6,-9 l -1,-73 v -35 c 0,-5 6,-5 6,0 v 35 l -1,73 c 0,6 2,9 6,9 h 24 c 4,0 7,-1 9,-3 2,-2 3,-6 1,-9 -2,-4 -6,-8 -10,-11 -3,-3 -6,-6 -5,-12 l 8,-90 2,-90 c 0,-7 3,-14 7,-21 12,-20 32,-50 52,-80 9,-16 -6,-23 -16,-8 z"
       style="fill:#7aae21" />
  </g>
</g>
</svg>
