<?xml version="1.0" encoding="UTF-8" standalone="no"?>
<svg
   version="1.1"
   id="Layer_1"
   width="1024"
   height="1024"
   viewBox="0 0 1024 1024"
   sodipodi:docname="IconBody.svg"
   inkscape:version="1.3 (0e150ed, 2023-07-21)"
   xmlns:inkscape="http://www.inkscape.org/namespaces/inkscape"
   xmlns:sodipodi="http://sodipodi.sourceforge.net/DTD/sodipodi-0.dtd"
   xmlns="http://www.w3.org/2000/svg"
   xmlns:svg="http://www.w3.org/2000/svg">
  <defs
     id="defs1" />
  <sodipodi:namedview
     id="namedview1"
     pagecolor="#ffffff"
     bordercolor="#000000"
     borderopacity="0.25"
     inkscape:showpageshadow="2"
     inkscape:pageopacity="0.0"
     inkscape:pagecheckerboard="0"
     inkscape:deskcolor="#d1d1d1"
     inkscape:zoom="0.23046875"
     inkscape:cx="512"
     inkscape:cy="512"
     inkscape:window-width="1312"
     inkscape:window-height="449"
     inkscape:window-x="0"
     inkscape:window-y="32"
     inkscape:window-maximized="0"
     inkscape:current-layer="Layer_1" />
  <!-- Background removed for iOS 26 glass effect -->
  <g
     id="content"
     transform="translate(61, 107) scale(1.85)">
    <circle
       fill="#7aae21"
       cx="240"
       cy="125"
       r="33"
       id="head" />
    <g
       id="body">
      <path
         id="body-shape"
         d="m 320,88 c -18,25 -36,50 -49,72 q -4,3 -11,3 h -40 q -7,0 -11,-3 c -13,-22 -31,-47 -49,-72 -10,-15 -25,-8 -16,8 20,30 40,60 52,80 4,7 7,14 7,21 l 2,90 8,90 c 1,6 -2,9 -5,12 -4,3 -8,7 -10,11 -2,3 -1,7 1,9 2,2 5,3 9,3 h 24 c 4,0 6,-3 6,-9 l -1,-73 v -35 c 0,-5 6,-5 6,0 v 35 l -1,73 c 0,6 2,9 6,9 h 24 c 4,0 7,-1 9,-3 2,-2 3,-6 1,-9 -2,-4 -6,-8 -10,-11 -3,-3 -6,-6 -5,-12 l 8,-90 2,-90 c 0,-7 3,-14 7,-21 12,-20 32,-50 52,-80 9,-16 -6,-23 -16,-8 z"
         style="fill:#7aae21" />
    </g>
  </g>
</svg>
