<?xml version="1.0" encoding="UTF-8" standalone="no"?>
<svg
   version="1.1"
   id="Layer_1"
   x="0px"
   y="0px"
   width="100%"
   viewBox="0 0 480 450"
   enable-background="new 0 0 474 450"
   xml:space="preserve"
   sodipodi:docname="Icon copy 2.svg"
   inkscape:version="1.3 (0e150ed, 2023-07-21)"
   xmlns:inkscape="http://www.inkscape.org/namespaces/inkscape"
   xmlns:sodipodi="http://sodipodi.sourceforge.net/DTD/sodipodi-0.dtd"
   xmlns="http://www.w3.org/2000/svg"
   xmlns:svg="http://www.w3.org/2000/svg"><defs
   id="defs24" /><sodipodi:namedview
   id="namedview24"
   pagecolor="#ffffff"
   bordercolor="#000000"
   borderopacity="0.25"
   inkscape:showpageshadow="2"
   inkscape:pageopacity="0.0"
   inkscape:pagecheckerboard="0"
   inkscape:deskcolor="#d1d1d1"
   inkscape:zoom="0.782586"
   inkscape:cx="366.73286"
   inkscape:cy="109.25317"
   inkscape:window-width="1552"
   inkscape:window-height="1018"
   inkscape:window-x="94"
   inkscape:window-y="32"
   inkscape:window-maximized="0"
   inkscape:current-layer="Layer_1" /><rect
   fill="#FFFFFF"
   x="0"
   y="0"
   width="480"
   height="450"
   id="background"
   inkscape:label="background" /><circle
   fill="#7AAE21"
   opacity="1.000000"
   stroke="none"
   cx="240"
   cy="125"
   r="33"
   id="head"
   inkscape:label="head" />&#10;&#10;&#10;<g
   id="chart"
   inkscape:label="chart"><rect
     fill="#D9DADB"
     opacity="1.000000"
     stroke="none"
     x="46"
     y="381"
     width="52"
     height="29"
     rx="8"
     id="bar-1"
     inkscape:label="bar-1" /><rect
     fill="#D9DADB"
     opacity="1.000000"
     stroke="none"
     x="114"
     y="331"
     width="52"
     height="79"
     rx="8"
     id="bar-2"
     inkscape:label="bar-2" /><rect
     fill="#DBDBDB"
     opacity="1.000000"
     stroke="none"
     x="183"
     y="284"
     width="52"
     height="126"
     rx="8"
     id="bar-3"
     inkscape:label="bar-3" /><rect
     fill="#DBDCDB"
     opacity="1.000000"
     stroke="none"
     x="253"
     y="307"
     width="52"
     height="103"
     rx="8"
     id="bar-4"
     inkscape:label="bar-4" /><rect
     fill="#DADADA"
     opacity="1.000000"
     stroke="none"
     x="321"
     y="239"
     width="52"
     height="171"
     rx="8"
     id="bar-5"
     inkscape:label="bar-5" /><rect
     fill="#DADBDA"
     opacity="1.000000"
     stroke="none"
     x="390"
     y="141"
     width="52"
     height="269"
     rx="8"
     id="bar-6"
     inkscape:label="bar-6" /><path
     id="trend-up"
     inkscape:label="trend"
     d="m 436.32227,28.417969 c -15.76052,12.635295 -30.28316,24.279275 -45.39258,36.392578 6.20379,1.196655 11.67981,2.252602 18.08593,3.488281 -4.44307,7.851516 -8.12908,14.509085 -11.94726,21.089844 -15.35338,26.462168 -32.42504,51.774548 -51.23438,75.898438 -9.58862,12.29786 -19.30704,24.49922 -29.20507,36.54883 -8.95022,10.8957 -18.09151,21.6443 -27.41407,32.22265 -4.30921,4.8897 -14.14881,15.20055 -18.9414,20.3125 -10.87503,-3.44476 -84.99231,-23.49445 -92.69141,-27.32031 -4.35995,-2.16658 -7.01349,-0.96422 -9.9668,1.86914 -6.48156,6.21828 -13.09588,12.29929 -19.53125,18.56446 -16.94395,16.49592 -33.8211,33.06017 -50.724605,49.59765 -0.595618,0.58271 -1.181016,1.17597 -1.78125,1.75391 -16.903074,16.27424 -33.821558,32.53465 -50.675781,48.85937 -0.856708,0.82977 -1.945994,2.82312 -1.615235,3.24414 1.924746,2.44989 3.964499,5.06348 6.56836,6.59766 1.000651,0.58957 3.948015,-1.13055 5.396484,-2.46289 7.46838,-6.86944 14.765556,-13.92514 22.070313,-20.9707 10.783322,-10.40071 21.551614,-20.81922 32.275394,-31.28125 17.1651,-16.74614 34.26984,-33.55361 51.44531,-50.28907 3.80698,-3.70945 7.6795,-7.37731 11.79492,-10.72851 1.04391,-0.85007 3.37589,-1.00878 4.70508,-0.47071 30.2348,8.55309 60.28718,16.05368 90.50715,24.65906 7.29273,0.50885 7.07868,1.23578 11.64519,-3.2489 6.75273,-6.63171 12.75599,-13.98621 19.07422,-21.0332 8.53569,-9.52026 17.44742,-18.74395 25.43945,-28.70313 15.15535,-18.88569 30.43441,-37.73498 44.42969,-57.47265 14.39546,-20.30209 27.39394,-41.59864 40.8418,-62.564457 3.71622,-5.793702 6.85315,-11.959158 10.41797,-18.238281 4.8192,4.193965 9.13258,7.947323 14.02734,12.207031 0.80103,-19.554858 1.56839,-38.305763 2.39649,-58.521484 z"
     style="fill:#dbdbdb;fill-opacity:1"
     sodipodi:nodetypes="cccsssscsscscssscssssccsssssccc" /></g>&#10;&#10;&#10;&#10;&#10;&#10;&#10;&#10;&#10;&#10;&#10;&#10;<g
   id="body"
   inkscape:label="body"
   style="display:inline"><path
     id="body-shape"
     inkscape:label="body-shape"
     d="M 320 88
        C 302 113 284 138 271 160
        Q 267 163 260 163
        L 220 163
        Q 213 163 209 160
        C 196 138 178 113 160 88
        C 150 73 135 80 144 96
        C 164 126 184 156 196 176
        C 200 183 203 190 203 197
        L 205 287
        L 213 377
        C 214 383 211 386 208 389
        C 204 392 200 396 198 400
        C 196 403 197 407 199 409
        C 201 411 204 412 208 412
        L 232 412
        C 236 412 238 409 238 403
        L 237 330
        L 237 295
        C 237 290 243 290 243 295
        L 243 330
        L 242 403
        C 242 409 244 412 248 412
        L 272 412
        C 276 412 279 411 281 409
        C 283 407 284 403 282 400
        C 280 396 276 392 272 389
        C 269 386 266 383 267 377
        L 275 287
        L 277 197
        C 277 190 280 183 284 176
        C 296 156 316 126 336 96
        C 345 80 330 73 320 88 Z"
     sodipodi:nodetypes="ccccccccccccccccccccccccccccccccccccccc"
     style="fill:#7aae21;fill-opacity:1" /></g>&#10;&#10;</svg>
